<svg width="32" height="32" viewBox="0 0 32 32" fill="none" xmlns="http://www.w3.org/2000/svg">
  <!-- Star icon for reviews -->
  <path d="M6 10L7.5 6L9 10L13 11.5L9 13L7.5 17L6 13L2 11.5L6 10Z" fill="#3B82F6"/>
  
  <!-- AI brain icon -->
  <circle cx="24" cy="16" r="5" fill="#3B82F6" opacity="0.2"/>
  <path d="M21 16C21 14.34 22.34 13 24 13C25.66 13 27 14.34 27 16C27 17.66 25.66 19 24 19C22.34 19 21 17.66 21 16Z" fill="#3B82F6"/>
  <path d="M22.5 14.5L24 16L25.5 14.5M22.5 17.5L24 16L25.5 17.5" stroke="white" stroke-width="0.5" stroke-linecap="round"/>
</svg> 