<svg width="200" height="50" viewBox="0 0 200 50" fill="none" xmlns="http://www.w3.org/2000/svg">
  <!-- Star icon for reviews -->
  <path d="M10 15L12.5 10L15 15L20 17.5L15 20L12.5 25L10 20L5 17.5L10 15Z" fill="#3B82F6"/>
  
  <!-- Text -->
  <text x="30" y="20" font-family="Arial, sans-serif" font-size="16" font-weight="bold" fill="#1F2937">Review</text>
  <text x="30" y="35" font-family="Arial, sans-serif" font-size="16" font-weight="bold" fill="#3B82F6">Stock</text>
  <text x="85" y="35" font-family="Arial, sans-serif" font-size="16" font-weight="bold" fill="#1F2937">AI</text>
  
  <!-- AI brain icon -->
  <circle cx="170" cy="25" r="8" fill="#3B82F6" opacity="0.2"/>
  <path d="M165 25C165 22.24 167.24 20 170 20C172.76 20 175 22.24 175 25C175 27.76 172.76 30 170 30C167.24 30 165 27.76 165 25Z" fill="#3B82F6"/>
  <path d="M168 23L170 25L172 23M168 27L170 25L172 27" stroke="white" stroke-width="1" stroke-linecap="round"/>
</svg> 